<svg width="32" height="32" viewBox="0 0 32 32" fill="none" xmlns="http://www.w3.org/2000/svg">
<path d="M0 16C0 7.16344 7.16344 0 16 0V0C24.8366 0 32 7.16344 32 16V16C32 24.8366 24.8366 32 16 32V32C7.16344 32 0 24.8366 0 16V16Z" fill="#00AD84"/>
<path d="M14.5 16.75C14.8221 17.1806 15.233 17.5369 15.7049 17.7947C16.1768 18.0525 16.6986 18.2058 17.235 18.2442C17.7713 18.2826 18.3097 18.2053 18.8135 18.0173C19.3173 17.8294 19.7748 17.5353 20.155 17.155L22.405 14.905C23.0881 14.1977 23.4661 13.2505 23.4575 12.2672C23.449 11.284 23.0546 10.3434 22.3593 9.64815C21.664 8.95287 20.7235 8.55849 19.7403 8.54995C18.757 8.5414 17.8098 8.91938 17.1025 9.60247L15.8125 10.885" stroke="white" stroke-width="2" stroke-linecap="round" stroke-linejoin="round"/>
<path d="M17.4999 15.25C17.1778 14.8195 16.7669 14.4632 16.295 14.2053C15.8231 13.9475 15.3013 13.7942 14.7649 13.7558C14.2286 13.7174 13.6902 13.7948 13.1864 13.9827C12.6826 14.1706 12.2251 14.4647 11.8449 14.845L9.59491 17.095C8.91181 17.8023 8.53383 18.7496 8.54238 19.7328C8.55092 20.716 8.94531 21.6566 9.64059 22.3519C10.3359 23.0471 11.2764 23.4415 12.2597 23.4501C13.2429 23.4586 14.1901 23.0806 14.8974 22.3975L16.1799 21.115" stroke="white" stroke-width="2" stroke-linecap="round" stroke-linejoin="round"/>
</svg>
