<svg width="16" height="15" viewBox="0 0 16 15" fill="none" xmlns="http://www.w3.org/2000/svg">
<path d="M7.04458 1.09181C7.33496 0.152131 8.66505 0.152134 8.95542 1.09181L9.90683 4.17063C10.0363 4.58964 10.4237 4.87539 10.8623 4.87539H14.0437C15.0002 4.87539 15.4109 6.08937 14.6508 6.67004L11.992 8.70116C11.659 8.95557 11.5199 9.39065 11.6436 9.79106L12.6386 13.0108C12.9261 13.941 11.8498 14.6918 11.0761 14.1007L8.60706 12.2145C8.24866 11.9407 7.75134 11.9407 7.39294 12.2145L4.92389 14.1007C4.1502 14.6918 3.07395 13.941 3.3614 13.0108L4.35636 9.79106C4.48009 9.39065 4.34103 8.95557 4.008 8.70116L1.34923 6.67004C0.589121 6.08937 0.999762 4.87539 1.9563 4.87539H5.13775C5.57631 4.87539 5.96369 4.58964 6.09317 4.17063L7.04458 1.09181Z" fill="#F4DA40"/>
</svg>
